<svg width="24" height="24" viewBox="0 0 24 24" fill="none" xmlns="http://www.w3.org/2000/svg">
<circle cx="12" cy="12" r="12" fill="#B2B2B2"/>
<path d="M4.88 16.6812C5.50821 16.2651 8.84368 14.9263 9.19268 14.9564C9.22758 14.5453 9.26747 14.1341 9.30237 13.718C9.30736 13.6729 9.28243 13.6127 9.25251 13.5826C8.83371 13.1815 8.77388 12.625 8.60935 12.1135C8.57944 12.0283 8.56448 11.938 8.53456 11.8277C8.25536 11.908 8.14069 11.7275 8.07587 11.5018C7.93129 10.9653 7.77673 10.4289 7.66704 9.88234C7.59724 9.5414 7.74183 9.4361 8.19055 9.4712C8.18057 9.3609 8.16063 9.2556 8.16562 9.15031C8.2055 8.318 8.2404 7.48569 8.3102 6.65338C8.33015 6.41271 8.42986 6.16202 8.55451 5.95143C9.20764 4.87344 10.135 4.18152 11.4064 4.0311C12.9968 3.84559 14.2084 4.4974 15.1158 5.78597C15.4598 6.27232 15.5296 6.8389 15.5495 7.40547C15.5695 8.08736 15.5545 8.76925 15.5545 9.4712C15.6642 9.46117 15.734 9.44112 15.8038 9.45115C15.9783 9.46619 16.1179 9.55142 16.098 9.74697C16.0331 10.4238 15.8786 11.0807 15.5844 11.6924C15.5445 11.7776 15.385 11.8077 15.2105 11.903C15.1257 12.1787 15.026 12.5497 14.9014 12.9057C14.8366 13.0912 14.7468 13.2818 14.6222 13.4272C14.4826 13.5876 14.4377 13.7481 14.4626 13.9486C14.5025 14.2795 14.5324 14.6105 14.5673 14.9063C14.7418 14.9464 14.8964 14.9614 15.031 15.0166C16.2176 15.508 17.4042 16.0043 18.5908 16.5007C18.6905 16.5408 18.7803 16.596 18.88 16.6461C15.5296 20.9882 8.52958 21.2338 4.88 16.6812Z" fill="white"/>
</svg>
