<svg width="25" height="15" viewBox="0 0 25 15" fill="none" xmlns="http://www.w3.org/2000/svg">
<path d="M11.67 0.0109863H3.32996C2.89257 0.0109863 2.4595 0.0971767 2.05542 0.264587C1.65134 0.431998 1.28421 0.677369 0.974976 0.986694C0.665744 1.29602 0.420463 1.66325 0.253174 2.06738C0.0858846 2.47151 -0.000131197 2.90459 1.50199e-07 3.34198V11.669C-0.000131197 12.1064 0.0858846 12.5395 0.253174 12.9437C0.420463 13.3478 0.665744 13.715 0.974976 14.0243C1.28421 14.3336 1.65134 14.579 2.05542 14.7464C2.4595 14.9138 2.89257 15 3.32996 15H21.67C22.1074 15 22.5405 14.9138 22.9446 14.7464C23.3487 14.579 23.7158 14.3336 24.025 14.0243C24.3343 13.715 24.5795 13.3478 24.7468 12.9437C24.9141 12.5395 25.0001 12.1064 25 11.669V3.34198C25.0001 2.90459 24.9141 2.47151 24.7468 2.06738C24.5795 1.66325 24.3343 1.29602 24.025 0.986694C23.7158 0.677369 23.3487 0.431998 22.9446 0.264587C22.5405 0.0971767 22.1074 0.0109863 21.67 0.0109863H13.33H11.67ZM23.33 11.669C23.3305 11.8874 23.288 12.1038 23.2048 12.3058C23.1217 12.5078 22.9995 12.6913 22.8453 12.8461C22.6912 13.0008 22.5079 13.1236 22.3063 13.2075C22.1046 13.2914 21.8885 13.3348 21.67 13.335H3.32996C3.11153 13.3348 2.8954 13.2914 2.69373 13.2075C2.49205 13.1236 2.30883 13.0008 2.15466 12.8461C2.00049 12.6913 1.87833 12.5078 1.79517 12.3058C1.712 12.1038 1.66952 11.8874 1.67004 11.669V3.34198C1.66952 3.12355 1.712 2.90717 1.79517 2.7052C1.87833 2.50323 2.00049 2.31965 2.15466 2.16492C2.30883 2.01019 2.49205 1.88736 2.69373 1.80347C2.8954 1.71958 3.11153 1.67629 3.32996 1.67603H21.67C21.8885 1.67629 22.1046 1.71958 22.3063 1.80347C22.5079 1.88736 22.6912 2.01019 22.8453 2.16492C22.9995 2.31965 23.1217 2.50323 23.2048 2.7052C23.288 2.90717 23.3305 3.12355 23.33 3.34198V11.669ZM3.32996 5.00702H5V3.34198H3.32996V5.00702ZM3.32996 8.33801H5V6.67297H3.32996V8.33801ZM3.32996 11.669H5V10H3.32996V11.665V11.669ZM8.32996 3.34198H6.67004V5.00702H8.32996V3.34198ZM8.32996 6.67297H6.67004V8.33801H8.32996V6.67297ZM11.67 3.34198H10V5.00702H11.67V3.34198ZM11.67 6.67297H10V8.33801H11.67V6.67297ZM13.33 5.00702H15V3.34198H13.33V5.00702ZM13.33 8.33801H15V6.67297H13.33V8.33801ZM16.67 5.00702H18.33V3.34198H16.67V5.00702ZM16.67 8.33801H18.33V6.67297H16.67V8.33801ZM16.67 11.669H18.33V10H16.67V11.665V11.669ZM20 5.00702H21.67V3.34198H20V5.00702ZM20 8.33801H21.67V6.67297H20V8.33801ZM20 11.669H21.67V10H20V11.665V11.669ZM6.67004 11.669H15V10H6.67004V11.665V11.669Z" fill="#999999"/>
</svg>
