<svg width="24" height="24" viewBox="0 0 24 24" fill="none" xmlns="http://www.w3.org/2000/svg">
<circle cx="12" cy="12" r="12" fill="#B2B2B2"/>
<path d="M17.6974 9.21616V13.8906C18.5739 13.5915 19.1999 12.6491 19.1999 11.5533C19.1999 10.4576 18.5739 9.51536 17.6974 9.21616Z" fill="white"/>
<path d="M16.2591 5.60064C15.8372 5.60064 15.5644 5.87312 15.5644 6.29504C14.5207 7.76528 12.5087 8.81696 10.1575 9.25856V13.848C12.5088 14.2898 14.5207 15.3413 15.5644 16.8115C15.5644 17.2336 15.8372 17.5059 16.2591 17.5059C16.681 17.5059 16.9535 17.2334 16.9535 16.8115V6.2952C16.9535 5.87328 16.681 5.60064 16.2591 5.60064Z" fill="white"/>
<path d="M9.36389 13.8102V9.29629H6.98277C5.65669 9.29629 4.80005 10.1529 4.80005 11.4788V11.6276C4.80005 12.9537 5.65669 13.8104 6.98277 13.8104H9.36389V13.8102Z" fill="white"/>
<path d="M9.068 14.505H6.81616L7.5928 17.5669C7.75584 18.2098 8.27632 18.5194 8.91904 18.3567C9.56176 18.1935 9.87168 17.6731 9.70864 17.0304L9.068 14.505Z" fill="white"/>
</svg>
