<svg width="31" height="11" viewBox="0 0 31 11" fill="none" xmlns="http://www.w3.org/2000/svg">
<path fill-rule="evenodd" clip-rule="evenodd" d="M22.1114 2.62024C21.0223 2.01177 18.5438 1.86778 18.5438 2.98837C18.5438 3.43353 19.1046 3.7397 19.7805 4.10872C20.8056 4.6684 22.0955 5.37265 22.0955 6.92562C22.0955 9.40674 19.4751 10.3189 17.7387 10.3189C16.0021 10.3189 14.8658 9.75885 14.8658 9.75885L15.2444 7.53382C16.2863 8.38196 19.4434 8.62224 19.4434 7.27773C19.4434 6.71283 18.822 6.37966 18.1014 5.99328C17.1069 5.46003 15.9234 4.82543 15.9234 3.34047C15.9234 0.619346 18.9225 0.0593262 20.1855 0.0593262C21.3537 0.0593262 22.4745 0.491507 22.4745 0.491507L22.1114 2.62024ZM8.6116 0.236721L6.18524 7.0538L5.89823 5.58585L5.89843 5.58633L5.83518 5.25731C5.54153 4.61564 4.86143 3.39608 3.5772 2.35528C3.19753 2.04764 2.8148 1.78509 2.44482 1.56082L4.65 10.1483H7.30155L11.3507 0.236721H8.6116ZM12.3434 0.236721L10.7528 10.1483H13.2976L14.8885 0.236721H12.3434ZM28.9287 0.236721H26.8826C25.9378 0.236721 25.7077 0.975373 25.7077 0.975373L21.9125 10.1483H24.565L25.0957 8.67613H28.331L28.6295 10.1483H30.9662L28.9287 0.236721ZM27.1664 2.93304L25.8291 6.64217H27.9187L27.1664 2.93304Z" fill="#005BAC"/>
<path d="M5.36313 1.40172C5.36313 1.40172 5.25781 0.494629 4.13343 0.494629H0.0484592L0.000610352 0.665105C0.000610352 0.665105 1.96417 1.07673 3.84797 2.6189C5.64819 4.09283 6.23546 5.93016 6.23546 5.93016L5.36313 1.40172Z" fill="#F6AC1D"/>
</svg>
