<svg width="12" height="11" viewBox="0 0 12 11" fill="none" xmlns="http://www.w3.org/2000/svg">
<path fill-rule="evenodd" clip-rule="evenodd" d="M0.140275 10.9717H2.57258V3.66461H0.140275V10.9717ZM10.5572 4.33384C10.0458 3.77538 9.37012 3.49661 8.53012 3.49661C8.21997 3.49661 7.93935 3.53446 7.68551 3.61015C7.45342 3.67609 7.2358 3.78506 7.04397 3.93138C6.86951 4.06984 6.73012 4.19723 6.62766 4.31446C6.52981 4.42615 6.43381 4.55723 6.34058 4.70492V3.66461H3.91381L3.9212 4.01907C3.92581 4.25446 3.92858 4.98184 3.92858 6.20123C3.92858 7.41969 3.92304 9.01015 3.91381 10.9708H6.33966V6.89446C6.33966 6.64431 6.36643 6.44492 6.41997 6.29815C6.52335 6.04707 6.67935 5.83661 6.88889 5.66769C7.09751 5.49784 7.35689 5.41292 7.66612 5.41292C8.08889 5.41292 8.39997 5.55877 8.59843 5.85138C8.79781 6.144 8.89751 6.54831 8.89751 7.06431V10.9717H11.3234V6.78461C11.3234 5.70831 11.0677 4.89046 10.5572 4.33384ZM1.37166 0.149536C0.96366 0.149536 0.633198 0.26769 0.378429 0.506767C0.128399 0.739317 -0.00947991 1.06821 -3.27723e-05 1.40954C-3.27723e-05 1.76861 0.122736 2.06861 0.369198 2.30954C0.613813 2.54954 0.938736 2.66954 1.34212 2.66954H1.35597C1.76951 2.66954 2.10181 2.54954 2.35566 2.30954C2.60858 2.06861 2.73227 1.76861 2.72766 1.40954C2.73236 1.06993 2.59638 0.743514 2.35197 0.50769C2.10643 0.26769 1.77966 0.149536 1.37166 0.149536Z" fill="white"/>
</svg>
