<svg width="88" height="34" viewBox="0 0 88 34" fill="none" xmlns="http://www.w3.org/2000/svg">
<rect width="88" height="34" fill="#E5E5E5"/>
<g id="Notification_1" clip-path="url(#clip0)">
<rect width="1200" height="1166" transform="translate(-16 -16)" fill="#F2F4F7"/>
<g id="Templates/Service_Header">
<g id="-" filter="url(#filter0_d)">
<rect x="-16" y="-16" width="1200" height="69" fill="white"/>
</g>
<g id="Group 2">
<g id="-_2" filter="url(#filter1_d)">
<rect x="-16" y="-16" width="241" height="69" fill="white"/>
</g>
<g id="You_control_logo">
<g id="Group">
<path id="Shape" d="M30.6938 7.56677V13.4646C30.6938 13.6621 30.8354 13.8101 31.0241 13.8101H32.652C32.8408 13.8101 32.9823 13.6374 32.9823 13.4646V7.5421L37.0638 1.37278C37.2054 1.12601 37.0638 0.829885 36.7807 0.829885H34.9641C34.8225 0.829885 34.7281 0.928594 34.681 1.00263L31.8499 5.27179L29.0188 1.00263C28.9716 0.928594 28.8772 0.829885 28.7357 0.829885H26.919C26.6359 0.829885 26.4944 1.12601 26.6359 1.37278L30.6938 7.56677Z" fill="#1A1A1A"/>
<path id="Shape_2" fill-rule="evenodd" clip-rule="evenodd" d="M51.1957 7.34468C51.1957 11.0463 48.3646 13.9829 44.8257 13.9829C41.2869 13.9829 38.4794 11.0463 38.4794 7.34468C38.4794 3.64309 41.2869 0.657143 44.8257 0.657143C48.3646 0.657143 51.1957 3.64309 51.1957 7.34468ZM48.9072 7.34468C48.9072 5.02501 47.067 3.07551 44.8257 3.07551C42.608 3.07551 40.7914 5.00034 40.7678 7.34468C40.7678 9.68902 42.5844 11.5892 44.8257 11.5892C47.067 11.5892 48.9072 9.68902 48.9072 7.34468Z" fill="#1A1A1A"/>
<path id="Shape_3" d="M58.533 13.9829C61.3405 13.9829 63.4638 11.7126 63.4638 8.89934V1.20004C63.4638 1.00262 63.2987 0.854561 63.1335 0.854561H61.4584C61.2697 0.854561 61.1281 1.0273 61.1281 1.20004V8.80064C61.1281 10.3553 60.0901 11.5892 58.533 11.5892C56.9759 11.5892 55.9614 10.3553 55.9614 8.77596V1.20004C55.9614 1.00262 55.8198 0.854561 55.6311 0.854561H53.956C53.7673 0.854561 53.6257 1.0273 53.6257 1.20004V8.89934C53.6257 11.7126 55.7491 13.9829 58.533 13.9829Z" fill="#1A1A1A"/>
<path id="Shape_4" d="M9.62574 30.3932C9.50778 30.2698 9.31904 30.2698 9.17748 30.3932C8.42252 31.0348 7.52601 31.4543 6.46434 31.4543C4.19946 31.4543 2.5008 29.4802 2.5008 27.1852C2.5008 24.8408 4.17587 22.8667 6.44075 22.8667C7.43164 22.8667 8.42252 23.2862 9.17748 23.9525C9.31904 24.1005 9.50778 24.1005 9.62574 23.9525L10.711 22.7926C10.8525 22.6446 10.8525 22.4225 10.6874 22.2744C9.48418 21.1393 8.1866 20.547 6.39357 20.547C2.85469 20.5223 0 23.5083 0 27.2099C0 30.9114 2.85469 33.848 6.39357 33.848C7.97426 33.848 9.48418 33.2805 10.6874 32.0466C10.8054 31.9232 10.8525 31.6764 10.711 31.5531L9.62574 30.3932Z" fill="#1A1A1A"/>
<path id="Shape_5" fill-rule="evenodd" clip-rule="evenodd" d="M12.0794 27.2099C12.0794 23.5083 14.8869 20.5223 18.4257 20.5223C21.9882 20.5223 24.7957 23.5083 24.7957 27.2099C24.7957 30.9114 21.9646 33.848 18.4257 33.848C14.8869 33.848 12.0794 30.9114 12.0794 27.2099ZM14.3678 27.2099C14.3678 29.5542 16.1845 31.4543 18.4257 31.4543C20.667 31.4543 22.5072 29.5542 22.5072 27.2099C22.5072 24.8902 20.667 22.9407 18.4257 22.9407C16.1845 22.9407 14.3678 24.8655 14.3678 27.2099Z" fill="#1A1A1A"/>
<path id="Shape_6" d="M37.2525 20.7197H35.6247C35.4359 20.7197 35.2944 20.8925 35.2944 21.0652V28.7152H35.2708L27.9099 20.5223H27.4617C27.2729 20.5223 27.1314 20.6704 27.1314 20.8678V33.3298C27.1314 33.5272 27.2965 33.6753 27.4617 33.6753H29.066C29.2547 33.6753 29.3962 33.5026 29.3962 33.3298V25.3591H29.4198L36.8279 33.8727H37.2525C37.4413 33.8727 37.5828 33.7247 37.5828 33.5272V21.0652C37.6064 20.8925 37.4413 20.7197 37.2525 20.7197Z" fill="#1A1A1A"/>
<path id="Shape_7" d="M87.5989 31.4543H83.0928V21.0652C83.0928 20.8678 82.9276 20.7197 82.7625 20.7197H81.1346C80.9458 20.7197 80.8043 20.8925 80.8043 21.0652V33.3298C80.8043 33.5272 80.9458 33.6753 81.1346 33.6753H87.6225C87.8113 33.6753 87.9528 33.5026 87.9528 33.3298V31.7998C87.9292 31.6271 87.7877 31.4543 87.5989 31.4543Z" fill="#1A1A1A"/>
<path id="Shape_8" fill-rule="evenodd" clip-rule="evenodd" d="M58.6038 20.7197C60.7271 20.7197 62.4729 22.4965 62.4729 24.6928C62.4729 26.3955 61.3877 27.8021 59.8542 28.4437L62.2842 33.1571C62.4021 33.4039 62.2842 33.7 61.9775 33.7H60.1137C59.9485 33.7 59.8777 33.6013 59.8306 33.5272L57.4713 28.6165H55.5131V33.3298C55.5131 33.5026 55.3716 33.6753 55.1828 33.6753H53.555C53.3662 33.6753 53.2247 33.5272 53.2247 33.3298V21.0652C53.2247 20.8925 53.3662 20.7197 53.555 20.7197H58.6038ZM55.5367 26.6176H58.415C59.3587 26.6176 60.1845 25.7786 60.1609 24.7421C60.1609 23.755 59.3587 22.9407 58.415 22.9407H55.5367V26.6176Z" fill="#1A1A1A"/>
<path id="Shape_9" fill-rule="evenodd" clip-rule="evenodd" d="M64.9265 27.2099C64.9265 23.5083 67.7341 20.5223 71.2729 20.5223C74.8118 20.5223 77.6429 23.5083 77.6429 27.2099C77.6429 30.9114 74.8118 33.848 71.2729 33.848C67.7341 33.848 64.9265 30.9114 64.9265 27.2099ZM67.215 27.2099C67.215 29.5542 69.0316 31.4543 71.2729 31.4543C73.5142 31.4543 75.3544 29.5542 75.3544 27.2099C75.3544 24.8902 73.5142 22.9407 71.2729 22.9407C69.0316 22.9407 67.215 24.8655 67.215 27.2099Z" fill="#1A1A1A"/>
<path id="Shape_10" d="M87.8584 18.104V16.574C87.8584 16.3765 87.7169 16.2285 87.5281 16.2285H48.7185H40.9802H0.589813C0.401073 16.2285 0.259518 16.4012 0.259518 16.574V18.104C0.259518 18.3014 0.401073 18.4494 0.589813 18.4494H5.42627H7.26649H40.9566H43.6697V33.3051C43.6697 33.5026 43.8349 33.6506 44 33.6506H45.6515C45.8402 33.6506 45.9818 33.4779 45.9818 33.3051V18.4741H48.6949H87.5281C87.7169 18.4741 87.8584 18.3014 87.8584 18.104Z" fill="#1A1A1A"/>
</g>
</g>
</g>
</g>
</g>
<defs>
<filter id="filter0_d" x="-20" y="-18" width="1208" height="77" filterUnits="userSpaceOnUse" color-interpolation-filters="sRGB">
<feFlood flood-opacity="0" result="BackgroundImageFix"/>
<feColorMatrix in="SourceAlpha" type="matrix" values="0 0 0 0 0 0 0 0 0 0 0 0 0 0 0 0 0 0 127 0"/>
<feOffset dy="2"/>
<feGaussianBlur stdDeviation="2"/>
<feColorMatrix type="matrix" values="0 0 0 0 0 0 0 0 0 0 0 0 0 0 0 0 0 0 0.117839 0"/>
<feBlend mode="normal" in2="BackgroundImageFix" result="effect1_dropShadow"/>
<feBlend mode="normal" in="SourceGraphic" in2="effect1_dropShadow" result="shape"/>
</filter>
<filter id="filter1_d" x="-16" y="-16" width="242" height="69" filterUnits="userSpaceOnUse" color-interpolation-filters="sRGB">
<feFlood flood-opacity="0" result="BackgroundImageFix"/>
<feColorMatrix in="SourceAlpha" type="matrix" values="0 0 0 0 0 0 0 0 0 0 0 0 0 0 0 0 0 0 127 0"/>
<feOffset dx="1"/>
<feColorMatrix type="matrix" values="0 0 0 0 0.899607 0 0 0 0 0.899607 0 0 0 0 0.899607 0 0 0 1 0"/>
<feBlend mode="normal" in2="BackgroundImageFix" result="effect1_dropShadow"/>
<feBlend mode="normal" in="SourceGraphic" in2="effect1_dropShadow" result="shape"/>
</filter>
<clipPath id="clip0">
<rect width="1200" height="1166" fill="white" transform="translate(-16 -16)"/>
</clipPath>
</defs>
</svg>
