<svg width="24" height="15" viewBox="0 0 24 15" fill="none" xmlns="http://www.w3.org/2000/svg">
<path d="M8.63 1.63757H15.0239V13.3458H8.63V1.63757Z" fill="#FF5F00"/>
<path d="M9.03651 7.49172C9.03651 5.11995 10.1268 2.99289 11.8269 1.6376C10.5888 0.639951 9.01803 0.0375977 7.31791 0.0375977C3.27088 0.0375977 0 3.36936 0 7.49172C0 11.5952 3.27088 14.9458 7.31791 14.9458C9.01803 14.9458 10.5888 14.3435 11.8269 13.3458C10.1268 11.9717 9.03651 9.86348 9.03651 7.49172Z" fill="#EB001B"/>
<path fill-rule="evenodd" clip-rule="evenodd" d="M23.6538 7.49172C23.6538 11.5952 20.3829 14.9458 16.3359 14.9458C14.6358 14.9458 13.065 14.3435 11.8269 13.3458C13.527 11.9905 14.6173 9.86348 14.6173 7.49172C14.6173 5.11995 13.527 2.99289 11.8269 1.6376C13.065 0.639951 14.6358 0.0375977 16.3359 0.0375977C20.3829 0.0375977 23.6538 3.36936 23.6538 7.49172ZM22.9516 12.1035V11.8588H23.044V11.8023H22.8038V11.8588H22.8962V12.1035H22.9516ZM23.4321 11.8211V12.1035H23.3582V11.8776L23.2842 12.0658H23.2288L23.1549 11.8776V12.1035H23.0994V11.8211H23.1734L23.2658 12.0282L23.3582 11.8211H23.4321Z" fill="#F79E1B"/>
</svg>
