<svg width="20" height="20" viewBox="0 0 20 20" fill="none" xmlns="http://www.w3.org/2000/svg">
<path fill-rule="evenodd" clip-rule="evenodd" d="M19 13H17V12C17 10.346 15.654 9 14 9H11V7H13C13.552 7 14 6.552 14 6V1C14 0.448 13.552 0 13 0H7C6.448 0 6 0.448 6 1V6C6 6.552 6.448 7 7 7H9V9H6C4.346 9 3 10.346 3 12V13H1C0.448 13 0 13.448 0 14V19C0 19.552 0.448 20 1 20H7C7.552 20 8 19.552 8 19V14C8 13.448 7.552 13 7 13H5V12C5 11.449 5.449 11 6 11H14C14.551 11 15 11.449 15 12V13H13C12.448 13 12 13.448 12 14V19C12 19.552 12.448 20 13 20H19C19.552 20 20 19.552 20 19V14C20 13.448 19.552 13 19 13Z" fill="#757575"/>
</svg>
