<svg width="22" height="20" viewBox="0 0 22 20" fill="none" xmlns="http://www.w3.org/2000/svg">
<path fill-rule="evenodd" clip-rule="evenodd" d="M11 0.5C6.14 0.5 1.78 3.5 0 8C2.39 14.08 9.25 17.06 15.33 14.67C18.38 13.47 20.8 11.06 22 8C20.22 3.5 15.86 0.5 11 0.5ZM6 8C6 10.7614 8.23858 13 11 13C13.7614 13 16 10.7614 16 8C16 5.23858 13.7614 3 11 3C8.23858 3 6 5.23858 6 8ZM8 8C8 6.34315 9.34315 5 11 5C12.6569 5 14 6.34315 14 8C14 9.65685 12.6569 11 11 11C9.34315 11 8 9.65685 8 8ZM8 18H6V20H8V18ZM12 18V20H10V18H12ZM16 18H14V20H16V18Z" fill="#757575"/>
</svg>
