<svg width="12" height="11" viewBox="0 0 12 11" fill="none" xmlns="http://www.w3.org/2000/svg">
<path fill-rule="evenodd" clip-rule="evenodd" d="M2.977 6.13857L0.211956 5.09004C-0.0688847 4.98311 -0.0713247 4.58028 0.208716 4.47055L11.5565 0.0227777C11.7971 -0.0717529 12.0453 0.142384 11.9929 0.399071L9.95649 10.3516C9.90849 10.5866 9.63733 10.6932 9.44593 10.5518L6.666 8.50123C6.49716 8.3767 6.26704 8.38337 6.10548 8.51712L4.5642 9.79373C4.38528 9.94235 4.11572 9.85956 4.04724 9.63559L2.977 6.13857ZM9.27869 2.19881L3.87476 5.58041C3.66764 5.7103 3.57012 5.96443 3.63704 6.20234L4.22132 8.28823C4.2628 8.43604 4.47396 8.42088 4.49408 8.26815L4.646 7.12427C4.67464 6.90892 4.77576 6.71051 4.93252 6.56225L9.39233 2.35024C9.47573 2.27164 9.37581 2.13821 9.27869 2.19881Z" fill="white"/>
</svg>
